<svg xmlns="http://www.w3.org/2000/svg" width="169" height="137" viewBox="0 0 169 137">
  <g id="Group_1062" data-name="Group 1062" transform="translate(16609 11347)">
    <text id="Pet_your_Pet" data-name="Pet your Pet" transform="translate(-16609 -11216)" fill="#fff" font-size="24" font-family="Orbitron-Bold, Orbitron" font-weight="700"><tspan x="0" y="0">Pet your Pet</tspan></text>
    <g id="svgexport-18_34_" data-name="svgexport-18 (34)" transform="translate(-16594.998 -11399.085)">
      <path id="Path_1176" data-name="Path 1176" d="M124.233,100.305a18.058,18.058,0,0,1-6.152,9.409,12.275,12.275,0,0,1-7.46,2.691,10.379,10.379,0,0,1-2.84-.392,11.629,11.629,0,0,1-7.524-7.377,18.932,18.932,0,0,1,5.884-20.649,11.059,11.059,0,0,1,17.836,5.078A18.15,18.15,0,0,1,124.233,100.305ZM52.57,90.557c4.03,0,7.878-2.242,10.558-6.153A23.28,23.28,0,0,0,66.9,71.323a23.285,23.285,0,0,0-3.773-13.086c-2.68-3.91-6.528-6.152-10.558-6.152S44.681,54.327,42,58.237a23.363,23.363,0,0,0-3.762,13.086A23.359,23.359,0,0,0,42,84.4C44.681,88.315,48.529,90.557,52.57,90.557Zm34.856,0c4.041,0,7.889-2.242,10.568-6.153a23.359,23.359,0,0,0,3.762-13.081,23.363,23.363,0,0,0-3.762-13.086c-2.68-3.91-6.528-6.152-10.568-6.152s-7.878,2.242-10.558,6.152A23.285,23.285,0,0,0,73.1,71.323,23.28,23.28,0,0,0,76.868,84.4c2.679,3.911,6.527,6.153,10.558,6.153ZM40.007,93.4a18.183,18.183,0,0,0-6.152-9.411,11.652,11.652,0,0,0-10.3-2.3,11.622,11.622,0,0,0-7.535,7.377,18.961,18.961,0,0,0,5.895,20.649,12.275,12.275,0,0,0,7.46,2.691,10.3,10.3,0,0,0,2.83-.392,11.621,11.621,0,0,0,7.535-7.377A18.134,18.134,0,0,0,40.007,93.4Zm51.02,9.4C85.153,96.634,77.693,93.239,70,93.239S54.831,96.634,48.979,102.8a44.08,44.08,0,0,0-11,22.99,16.768,16.768,0,0,0,4.78,15.064,14.053,14.053,0,0,0,14.909,3.358,36.991,36.991,0,0,1,24.653,0,14.64,14.64,0,0,0,4.909.871,14.237,14.237,0,0,0,9.989-4.228,16.745,16.745,0,0,0,4.791-15.064A44.145,44.145,0,0,0,91.027,102.8Z" fill="#fff"/>
    </g>
  </g>
</svg>
